<svg width="24" height="24" viewBox="0 0 24 24" fill="none" xmlns="http://www.w3.org/2000/svg">
<path fill-rule="evenodd" clip-rule="evenodd" d="M6.01811 10.0124H8.62699L8.62734 18.4542H8.58471H6.00895L6.01811 10.0124ZM12.807 11.1719C12.8665 11.1392 13.0321 10.8555 13.254 10.6334C13.4403 10.4468 13.5601 10.3419 13.7993 10.2043C14.2534 9.94309 14.7677 9.80229 15.3722 9.80722C18.4862 9.83115 18.4872 12.2755 18.4872 14.5589C18.4872 15.8571 18.4872 17.1556 18.47 18.4542H15.8519C15.8519 17.144 15.8519 15.8342 15.8519 14.5241C15.8519 13.2727 15.8164 12.0336 14.3622 12.1097C13.0349 12.179 12.8964 13.2899 12.8968 14.5589C12.8971 15.8557 12.8968 17.1528 12.8968 18.4538L10.283 18.4542L10.2967 10.0124L12.7893 10.0184L12.807 11.1719ZM7.0122 5.84753C7.91612 5.6497 8.67031 6.29704 8.81862 7.02181C9.00919 7.95216 8.36279 8.68292 7.61916 8.83076C5.681 9.21656 5.03459 6.28014 7.0122 5.84753ZM4.50514 3.393C3.9158 3.49051 3.45574 3.88616 3.38811 4.49689C3.33527 4.97315 3.37719 10.3922 3.37719 11.1501C3.37719 11.8133 3.32857 19.5556 3.3948 19.9879C3.47969 20.5433 3.93693 20.9974 4.50831 21.0696C4.94195 21.1241 18.0674 21.0798 19.7474 21.0798C20.6591 21.0798 21.0898 20.5852 21.0898 19.8028C21.0898 19.8028 21.1028 10.0997 21.1028 8.88954C21.1028 8.18237 21.1422 4.87529 21.0883 4.46697C21.0137 3.90024 20.5339 3.45918 19.9798 3.38843C19.5391 3.33211 10.1023 3.37681 8.89858 3.37681C8.24407 3.37681 4.85599 3.33492 4.50514 3.393Z" fill="#9D9D9D"/>
</svg>
