<svg width="24" height="22" viewBox="0 0 24 22" fill="none" xmlns="http://www.w3.org/2000/svg">
<mask id="mask0_1_87" style="mask-type:luminance" maskUnits="userSpaceOnUse" x="0" y="0" width="24" height="22">
<path d="M24 0H0V22H24V0Z" fill="white"/>
</mask>
<g mask="url(#mask0_1_87)">
<path d="M7.335 22C5.241 22 3.14702 22 1.05302 22C0.335019 22 0.0090196 21.705 0.0100196 21.052C0.0140196 19.637 -0.0309816 18.22 0.0400184 16.807C0.151018 14.578 1.864 12.646 4.218 12.034C4.732 11.9 5.27802 11.82 5.81202 11.807C6.93702 11.779 8.06602 11.778 9.19102 11.826C11.732 11.933 14.015 13.744 14.516 16.031C14.603 16.427 14.642 16.836 14.647 17.24C14.663 18.525 14.653 19.811 14.653 21.096C14.653 21.688 14.319 21.998 13.67 21.998C11.558 22 9.446 21.999 7.335 21.999V22Z" fill="#DBE3FF"/>
<path d="M2.348 5.88C2.38 3.298 4.62702 1.29699 7.46302 1.32699C10.133 1.35499 12.33 3.44099 12.309 5.92599C12.286 8.49399 10.026 10.487 7.17402 10.456C4.54702 10.427 2.319 8.315 2.348 5.88Z" fill="#DBE3FF"/>
<path d="M21.389 5.08299V7.481H18.467V5.09H15.837V2.405H18.457V0H21.389V2.395H24V5.08299H21.388H21.389Z" fill="#DBE3FF"/>
</g>
</svg>
