<svg width="32" height="32" viewBox="0 0 32 32" fill="none" xmlns="http://www.w3.org/2000/svg">
<path d="M24 13.3333L18.6667 8M3.33331 28.6667L7.8458 28.1653C8.39712 28.104 8.67278 28.0734 8.93044 27.99C9.15903 27.916 9.37658 27.8114 9.57716 27.6792C9.80325 27.5301 9.99937 27.3339 10.3916 26.9417L28 9.33334C29.4728 7.86058 29.4728 5.47276 28 4C26.5273 2.52724 24.1394 2.52724 22.6667 4L5.05828 21.6084C4.66604 22.0006 4.46992 22.1967 4.32083 22.4228C4.18856 22.6234 4.084 22.8409 4.01 23.0695C3.92659 23.3272 3.89596 23.6029 3.8347 24.1542L3.33331 28.6667Z" stroke="white" stroke-width="2" stroke-linecap="round" stroke-linejoin="round"/>
</svg>
