<svg width="24" height="24" viewBox="0 0 24 24" fill="none" xmlns="http://www.w3.org/2000/svg">
<path fill-rule="evenodd" clip-rule="evenodd" d="M8.95425 12.2371C8.95425 10.5191 10.3233 9.1082 12.0029 9.1082C13.6767 9.1082 15.0515 10.5132 15.0515 12.2371C15.0515 13.955 13.6825 15.3659 12.0029 15.3659C10.329 15.3659 8.95425 13.9609 8.95425 12.2371V12.2371ZM15.759 7.22498C15.759 8.02786 16.5241 8.6005 17.2891 8.28171C17.4329 8.22267 17.5019 8.15773 17.6112 8.06328C17.7838 7.92159 17.9506 7.5851 17.9506 7.33124C17.9506 6.96523 17.9046 6.72909 17.6342 6.45162C17.0763 5.87898 16.1502 6.09151 15.8626 6.78222C15.8165 6.89439 15.759 7.07739 15.759 7.22498V7.22498ZM4.51936 13.9727C4.51936 13.589 4.50211 9.9465 4.52511 9.77529C4.55963 9.54506 4.51361 9.2794 4.54812 9.04916C4.57688 8.83664 4.55387 8.54737 4.57688 8.32894C4.64591 7.43751 4.76095 6.7527 5.24413 6.03247C5.55474 5.572 5.95164 5.25912 6.42907 5.01707C6.86048 4.79864 7.68878 4.63334 8.22948 4.61563C8.28701 4.61563 8.35028 4.62154 8.4078 4.61563C8.48833 4.60973 8.48258 4.59792 8.56886 4.59792C8.69541 4.59202 8.8162 4.60383 8.93124 4.58612C9.16133 4.5507 9.42017 4.60383 9.64451 4.56841C9.75955 4.5507 14.2117 4.54479 14.3555 4.56841C14.5626 4.59792 14.8559 4.5566 15.0688 4.58612C15.1723 4.59792 15.2816 4.59792 15.4139 4.59792L15.9316 4.63334C16.9842 4.71599 17.7953 4.94033 18.52 5.70778C18.5603 5.74911 18.5661 5.76682 18.6006 5.80814C19.0377 6.30994 19.2736 6.95342 19.3656 7.63232C19.3944 7.85666 19.4116 8.08689 19.4346 8.31123C19.4576 8.53556 19.4576 9.62771 19.4806 9.76349C19.5152 9.98782 19.4922 13.5417 19.4922 13.9786C19.4922 14.1793 19.5094 14.5217 19.4864 14.7047C19.4519 14.935 19.4979 15.2006 19.4634 15.4308C19.4346 15.6434 19.4576 15.9326 19.4346 16.1511C19.3483 17.2314 19.1758 18.0933 18.4338 18.8549C17.8988 19.4039 17.2201 19.6814 16.4435 19.7935C16.3457 19.8053 16.2422 19.8171 16.1272 19.8349C16.0466 19.8467 15.8741 19.8644 15.782 19.8644L15.0803 19.8939C14.8502 19.9293 14.5913 19.8762 14.367 19.9116C14.252 19.9293 9.79982 19.9352 9.65601 19.9116C9.44894 19.8821 9.15558 19.9234 8.94275 19.8939C8.75293 19.8644 8.22373 19.8821 7.91312 19.8349C7.79807 19.8171 7.67728 19.8053 7.57949 19.7935C6.80871 19.6814 6.12421 19.4157 5.58351 18.8608C5.29015 18.5597 5.1636 18.3649 4.97953 17.9989C4.68042 17.3849 4.64591 16.8359 4.57113 16.1688C4.54812 15.9445 4.57688 15.667 4.54812 15.4427C4.51936 15.236 4.55963 14.929 4.52511 14.7165C4.4906 14.4863 4.51361 14.2206 4.51361 13.9786L4.51936 13.9727ZM2.88 10.224V14.7047L2.93177 16.0212C2.93753 16.092 2.93177 16.1688 2.93177 16.2396C2.93177 16.3341 2.94903 16.3518 2.94903 16.4581C2.95478 16.7591 3.06407 17.3731 3.1331 17.6624C3.23088 18.0874 3.43796 18.6424 3.62778 18.9848C3.85211 19.3862 4.0937 19.7109 4.40432 20.0297L4.6344 20.2481C5.4397 21.0215 6.76844 21.4701 7.86135 21.5233C7.9994 21.5292 8.1432 21.5292 8.28701 21.541C8.82771 21.5882 9.45469 21.5941 10.0357 21.5941H14.4015L15.6842 21.541C15.7533 21.5351 15.828 21.541 15.8971 21.541L16.5125 21.4819C17.8528 21.2989 18.7559 20.8739 19.6935 19.9175C19.9236 19.6814 20.1939 19.274 20.3607 18.9907C20.8209 18.1996 20.9877 17.196 21.0625 16.275C21.0682 16.1983 21.0567 16.1157 21.0625 16.0389C21.1085 15.484 21.1143 14.8405 21.1143 14.2442V9.76349L21.0625 8.44701C21.0567 8.37616 21.0625 8.29942 21.0625 8.22858C21.0395 7.37257 20.7691 6.20958 20.3665 5.48935C19.5324 4.00167 18.2439 3.24012 16.5298 2.99217C16.4033 2.97446 16.248 2.95675 16.1272 2.95085C15.3679 2.90952 14.7697 2.88 13.9529 2.88H9.58699L7.8786 2.95085C7.75781 2.95675 7.59675 2.97446 7.47596 2.99217C6.23925 3.15747 5.22687 3.60023 4.40432 4.44443C3.78884 5.07611 3.38044 5.80224 3.1331 6.81764C3.06983 7.0892 2.95478 7.70317 2.94903 7.99834C2.94903 8.0928 2.93753 8.12822 2.93177 8.19906C2.92602 8.2758 2.93753 8.35845 2.93177 8.4352C2.88576 8.99013 2.88 9.63361 2.88 10.2299L2.88 10.224ZM7.3149 12.1603C7.3149 13.5535 7.78082 14.6929 8.68965 15.6316C8.88523 15.8323 9.0693 16.0094 9.30513 16.1688C9.60424 16.3754 9.71353 16.4403 10.0414 16.6056C11.1976 17.1901 12.7909 17.1842 13.9471 16.6115C14.0794 16.5466 14.2002 16.4876 14.321 16.4108C14.902 16.0507 15.4484 15.5843 15.8338 14.9999C15.9143 14.8759 15.9776 14.7756 16.0581 14.6457C16.8807 13.2406 16.9037 11.263 16.0696 9.85204C15.9891 9.71626 15.9258 9.6159 15.8396 9.48602C15.5865 9.09639 15.0688 8.56508 14.6949 8.30532C13.8551 7.72678 13.067 7.4316 11.9281 7.4316C11.2436 7.4316 10.5188 7.63232 10.0529 7.86256C9.73079 8.02195 9.61575 8.0928 9.31664 8.29352C8.76443 8.67134 8.28125 9.24398 7.94188 9.82843C7.57949 10.4483 7.3149 11.3161 7.3149 12.1603V12.1603Z" fill="#9D9D9D"/>
</svg>
