<svg width="50" height="52" viewBox="0 0 50 52" fill="none" xmlns="http://www.w3.org/2000/svg">
<g clip-path="url(#clip0_6_458)">
<path d="M0.000226475 29.4227L0.1248 10.6737C0.14735 7.2798 2.52005 4.37233 5.79728 3.72274L23.9016 0.134192C28.2522 -0.728163 32.2894 2.67597 32.2596 7.18149L32.1349 25.9303C32.1124 29.3242 29.7397 32.2317 26.4626 32.8814L8.35812 36.4699C4.0075 37.3322 -0.0297091 33.9281 0.000226475 29.4227Z" fill="white" fill-opacity="0.2"/>
<path d="M8.87034 36.8992L8.99491 18.1503C9.01747 14.7564 11.3902 11.8489 14.6674 11.1993L32.7718 7.61075C37.1224 6.74841 41.1596 10.1525 41.1296 14.658L41.0051 33.407C40.9826 36.8009 38.6098 39.7084 35.3326 40.3579L17.2282 43.9465C12.8776 44.8089 8.84041 41.4046 8.87034 36.8992Z" fill="white" fill-opacity="0.5"/>
<path d="M17.7405 44.3826L17.8651 25.6337C17.8876 22.2397 20.2603 19.3323 23.5375 18.6826L41.6419 15.0942C45.9925 14.2318 50.0298 17.6359 49.9998 22.1414L49.8753 40.8903C49.8527 44.2842 47.48 47.1917 44.2028 47.8414L26.0984 51.4298C21.7478 52.2922 17.7106 48.8881 17.7405 44.3826Z" fill="white" fill-opacity="0.8"/>
</g>
<defs>
<clipPath id="clip0_6_458">
<rect width="50" height="51.5625" fill="white"/>
</clipPath>
</defs>
</svg>
