<svg width="22" height="22" viewBox="0 0 22 22" fill="none" xmlns="http://www.w3.org/2000/svg">
<path fill-rule="evenodd" clip-rule="evenodd" d="M11 0.6875C5.17573 0.6875 0.458336 5.4049 0.458336 11.2292C0.458336 15.8939 3.47589 19.8338 7.6662 21.2306C8.19328 21.3228 8.39094 21.0066 8.39094 20.7298C8.39094 20.4795 8.37776 19.6493 8.37776 18.7665C5.72917 19.254 5.04396 18.1208 4.83313 17.5278C4.71453 17.2247 4.20063 16.2892 3.75261 16.0388C3.38365 15.8411 2.85656 15.3536 3.73943 15.3404C4.56959 15.3272 5.16255 16.1047 5.36021 16.4209C6.30896 18.0154 7.82433 17.5673 8.43047 17.2906C8.52271 16.6054 8.79943 16.1442 9.1025 15.8807C6.75698 15.6171 4.30604 14.7079 4.30604 10.6757C4.30604 9.52932 4.71453 8.58057 5.38656 7.84266C5.28115 7.57911 4.91219 6.49859 5.49198 5.04911C5.49198 5.04911 6.37485 4.7724 8.39094 6.12964C9.23427 5.89245 10.1303 5.77385 11.0264 5.77385C11.9224 5.77385 12.8184 5.89245 13.6618 6.12964C15.6779 4.75922 16.5607 5.04911 16.5607 5.04911C17.1405 6.49859 16.7716 7.57911 16.6661 7.84266C17.3382 8.58057 17.7467 9.51615 17.7467 10.6757C17.7467 14.7211 15.2826 15.6171 12.937 15.8807C13.3192 16.2101 13.6486 16.8426 13.6486 17.8309C13.6486 19.2408 13.6354 20.3741 13.6354 20.7298C13.6354 21.0066 13.8331 21.336 14.3602 21.2306C18.5241 19.8338 21.5417 15.8807 21.5417 11.2292C21.5417 5.4049 16.8243 0.6875 11 0.6875V0.6875Z" fill="#808080"/>
</svg>
