<svg width="200" height="200" viewBox="0 0 200 200" fill="none" xmlns="http://www.w3.org/2000/svg">
<g clip-path="url(#clip0_4_1468)">
<rect width="200" height="200" rx="60" fill="url(#paint0_linear_4_1468)"/>
<path d="M121.333 117.333V132.333C121.333 135.222 78.6667 134.251 78.6667 130.085C78.6667 126.165 78.7467 108.401 78.6667 90.1253C69.1121 77.7407 69.1121 70 76.6667 62C84.2214 54 138 50 138 50C138 50 142.035 88.8067 142.667 99.3333C142.921 103.567 145.667 117.333 135 117.333H121.333Z" fill="url(#paint1_linear_4_1468)"/>
<g style="mix-blend-mode:multiply">
<path d="M121.317 116.052C112.632 115.104 104.237 112.362 96.6667 108C96.6667 108 102 120.667 121.317 124.104V116.052Z" fill="#FFD7B8"/>
</g>
<path d="M170 162.205C174.231 170.808 177.564 185.03 180 204.871H20C22.4364 185.028 25.7698 170.806 30 162.205C34.216 153.631 73.3333 137.132 73.3333 137.132C73.3333 137.132 74.112 129.59 76 128.509C77.888 127.427 121.751 127.428 124 128.509C126.249 129.589 126.667 137.128 126.667 137.128C126.667 137.128 165.792 153.649 170 162.205Z" fill="url(#paint2_linear_4_1468)"/>
<path d="M87.3466 70.1373C85.2266 68.3167 82.6506 67.0907 79.0092 68.9827C70.3766 73.4647 76.1059 90.7567 85.7666 90.4193C89.0999 90.3034 87.5719 96.946 78.6666 101.333C78.6666 94.3333 67.9999 77 67.0666 61.2187C56.3332 57.222 58.9999 41.2307 66.3686 41.2307C65.1926 26.57 88.6666 18.998 97.7559 27.4107C107 16.3313 130.333 21.998 131.742 31.61C147.787 23.0453 158.333 47.6647 143.31 57.222C137.128 61.1553 122.667 62.652 101.791 62.652C91.7739 62.652 97.5346 86.0987 100.667 93.6667C104.667 103.333 127 104.667 134 103.667C139.467 102.886 142.333 100.667 142.667 99.3334C147.667 112.667 141.333 120.667 131.333 120.667C114.333 120.667 97.3332 115.667 94.6666 103.333C92.5439 93.518 92.6606 77.6773 87.3466 70.1373Z" fill="url(#paint3_linear_4_1468)"/>
</g>
<defs>
<linearGradient id="paint0_linear_4_1468" x1="100" y1="0" x2="100" y2="200" gradientUnits="userSpaceOnUse">
<stop stop-color="#100014"/>
<stop offset="1" stop-color="#853644"/>
</linearGradient>
<linearGradient id="paint1_linear_4_1468" x1="107.198" y1="50" x2="107.198" y2="133.991" gradientUnits="userSpaceOnUse">
<stop stop-color="#FFD4B3"/>
<stop offset="1" stop-color="#FFDCC2"/>
</linearGradient>
<linearGradient id="paint2_linear_4_1468" x1="100" y1="127.698" x2="100" y2="204.871" gradientUnits="userSpaceOnUse">
<stop stop-color="#546CEB"/>
<stop offset="1" stop-color="#556BE5"/>
</linearGradient>
<linearGradient id="paint3_linear_4_1468" x1="105.232" y1="120.667" x2="105.232" y2="21.3297" gradientUnits="userSpaceOnUse">
<stop stop-color="#E67240"/>
<stop offset="0.656777" stop-color="#914EE6"/>
</linearGradient>
<clipPath id="clip0_4_1468">
<rect width="200" height="200" rx="60" fill="white"/>
</clipPath>
</defs>
</svg>
