<svg width="32" height="32" viewBox="0 0 32 32" fill="none" xmlns="http://www.w3.org/2000/svg">
<path d="M21.3333 8V6.93333C21.3333 5.43986 21.3333 4.69312 21.0427 4.12269C20.787 3.62093 20.3791 3.21298 19.8773 2.95732C19.3069 2.66667 18.5601 2.66667 17.0667 2.66667H14.9333C13.4399 2.66667 12.6931 2.66667 12.1227 2.95732C11.6209 3.21298 11.213 3.62093 10.9573 4.12269C10.6667 4.69312 10.6667 5.43986 10.6667 6.93333V8M13.3333 15.3333V22M18.6667 15.3333V22M4 8H28M25.3333 8V22.9333C25.3333 25.1735 25.3333 26.2937 24.8974 27.1493C24.5139 27.9019 23.9019 28.5139 23.1493 28.8974C22.2936 29.3333 21.1735 29.3333 18.9333 29.3333H13.0667C10.8265 29.3333 9.70635 29.3333 8.8507 28.8974C8.09806 28.5139 7.48613 27.9019 7.10264 27.1493C6.66667 26.2937 6.66667 25.1735 6.66667 22.9333V8" stroke="white" stroke-width="2" stroke-linecap="round" stroke-linejoin="round"/>
</svg>
