<svg width="67" height="67" viewBox="0 0 67 67" fill="none" xmlns="http://www.w3.org/2000/svg">
<path d="M14.2962 49.7021C19.9679 46.4963 26.5203 44.6667 33.5 44.6667C40.4797 44.6667 47.0322 46.4963 52.7038 49.7021M41.875 27.9167C41.875 32.5421 38.1254 36.2917 33.5 36.2917C28.8746 36.2917 25.125 32.5421 25.125 27.9167C25.125 23.2913 28.8746 19.5417 33.5 19.5417C38.1254 19.5417 41.875 23.2913 41.875 27.9167ZM58.625 33.5C58.625 47.3762 47.3762 58.625 33.5 58.625C19.6238 58.625 8.375 47.3762 8.375 33.5C8.375 19.6238 19.6238 8.375 33.5 8.375C47.3762 8.375 58.625 19.6238 58.625 33.5Z" stroke="white" stroke-width="2" stroke-linecap="round" stroke-linejoin="round"/>
</svg>
